<?xml version="1.0" encoding="UTF-8" standalone="no"?>
<!-- Created with Inkscape (http://www.inkscape.org/) -->

<svg
   version="1.1"
   id="svg1"
   width="1024"
   height="1024"
   viewBox="0 0 1024 1024"
   sodipodi:docname="Brand Logo.svg"
   inkscape:version="1.4 (86a8ad7, 2024-10-11)"
   inkscape:export-filename="Brand Log.png"
   inkscape:export-xdpi="190.31"
   inkscape:export-ydpi="190.31"
   xmlns:inkscape="http://www.inkscape.org/namespaces/inkscape"
   xmlns:sodipodi="http://sodipodi.sourceforge.net/DTD/sodipodi-0.dtd"
   xmlns="http://www.w3.org/2000/svg"
   xmlns:svg="http://www.w3.org/2000/svg">
  <sodipodi:namedview
     id="namedview1"
     pagecolor="#ffffff"
     bordercolor="#000000"
     borderopacity="0.25"
     inkscape:showpageshadow="2"
     inkscape:pageopacity="0.0"
     inkscape:pagecheckerboard="0"
     inkscape:deskcolor="#d1d1d1"
     showgrid="false"
     inkscape:zoom="0.8376177"
     inkscape:cx="414.27014"
     inkscape:cy="565.29369"
     inkscape:window-width="2560"
     inkscape:window-height="1494"
     inkscape:window-x="-11"
     inkscape:window-y="-11"
     inkscape:window-maximized="1"
     inkscape:current-layer="g1">
    <inkscape:grid
       id="grid2"
       units="px"
       originx="0"
       originy="0"
       spacingx="1"
       spacingy="1"
       empcolor="#0099e5"
       empopacity="0.30196078"
       color="#0099e5"
       opacity="0.14901961"
       empspacing="5"
       enabled="true"
       visible="false" />
  </sodipodi:namedview>
  <defs
     id="defs1" />
  <g
     inkscape:groupmode="layer"
     inkscape:label="Image"
     id="g1">
    <g
       id="g2"
       transform="matrix(1.25,0,0,1.25,-115.20769,-115.20769)">
      <rect
         style="fill:#000000;fill-opacity:0.98574;stroke:none;stroke-width:3.77953;stroke-dasharray:none;stroke-opacity:1"
         id="rect2"
         width="821.37708"
         height="821.37708"
         x="93.121239"
         y="93.121231" />
      <path
         style="fill:#ffffff;fill-opacity:1;stroke:none;stroke-width:5.27133;stroke-dasharray:none;stroke-opacity:1"
         d="m 522.63468,405.11417 67.43594,0.83255 -88.24951,90.74713 c 0,0 112.39323,-17.48339 105.7329,74.0963 0,0 4.99526,8.32543 -41.62712,51.61764 -46.62239,43.2922 -80.75664,80.75663 -80.75664,80.75663 0,0 -30.80408,13.32068 -103.23528,-26.64136 -72.43121,-39.96205 -107.39799,-125.71394 -104.90036,-189.81971 2.49762,-64.10578 30.80407,-177.33158 171.50376,-212.29836 140.69971,-34.9668 226.45159,78.25901 242.2699,113.22579 15.81831,34.96679 51.39156,118.93622 -11.74792,225.56854 0,0 -23.70676,30.59318 -44.0168,45.60495 -19.17188,14.17051 -48.46646,40.37061 -111.75133,47.03042 0,0 72.92694,-73.92578 100.27175,-102.36789 22.68465,-23.59494 54.45442,-80.35707 38.85396,-155.41589 -15.60045,-75.0588 -90.95273,-129.21597 -161.00848,-128.09199 -73.38505,1.1774 -110.63331,18.44125 -152.10663,80.38666 -44.99765,67.20942 -15.25561,141.86719 -15.25561,141.86719 0,0 21.07114,92.16059 129.98,111.88193 l 93.01405,-92.42536 c 0,0 6.47566,-11.18523 -7.3587,-13.24567 H 424.2902 l -0.5887,-43.85788 z"
         id="path2"
         sodipodi:nodetypes="ccccscsssscscssssccccccc" />
    </g>
  </g>
</svg>
